<svg width="24" height="24" viewBox="0 0 24 24" fill="none" xmlns="http://www.w3.org/2000/svg">
<g clip-path="url(#clip0_2352_9203)">
<path d="M16 3C17.3261 3 18.5979 3.52678 19.5355 4.46447C20.4732 5.40215 21 6.67392 21 8V16C21 17.3261 20.4732 18.5979 19.5355 19.5355C18.5979 20.4732 17.3261 21 16 21H8C6.67392 21 5.40215 20.4732 4.46447 19.5355C3.52678 18.5979 3 17.3261 3 16V8C3 6.67392 3.52678 5.40215 4.46447 4.46447C5.40215 3.52678 6.67392 3 8 3H16ZM12 8C10.9738 8 9.98677 8.39443 9.24319 9.10172C8.4996 9.80901 8.05631 10.775 8.005 11.8L8 12C8 12.7911 8.2346 13.5645 8.67412 14.2223C9.11365 14.8801 9.73836 15.3928 10.4693 15.6955C11.2002 15.9983 12.0044 16.0775 12.7804 15.9231C13.5563 15.7688 14.269 15.3878 14.8284 14.8284C15.3878 14.269 15.7688 13.5563 15.9231 12.7804C16.0775 12.0044 15.9983 11.2002 15.6955 10.4693C15.3928 9.73836 14.8801 9.11365 14.2223 8.67412C13.5645 8.2346 12.7911 8 12 8ZM16.5 6.5C16.2551 6.50003 16.0187 6.58996 15.8356 6.75272C15.6526 6.91547 15.5357 7.13975 15.507 7.383L15.5 7.51C15.5003 7.76488 15.5979 8.01003 15.7728 8.19537C15.9478 8.3807 16.187 8.49223 16.4414 8.50717C16.6958 8.52211 16.9464 8.43933 17.1418 8.27573C17.3373 8.11214 17.4629 7.8801 17.493 7.627L17.5 7.5C17.5 7.23478 17.3946 6.98043 17.2071 6.79289C17.0196 6.60536 16.7652 6.5 16.5 6.5Z" fill="white"/>
</g>
<defs>
<clipPath id="clip0_2352_9203">
<rect width="24" height="24" fill="white"/>
</clipPath>
</defs>
</svg>
