<svg width="24" height="24" viewBox="0 0 24 24" fill="none" xmlns="http://www.w3.org/2000/svg">
<g clip-path="url(#clip0_2352_9202)">
<path d="M14.0581 3.40989C12.2511 4.17689 11.0631 5.86289 11.0021 7.78989L11.0001 7.97189L10.7571 7.94889C8.36508 7.67989 6.25908 6.43689 4.81308 4.41789C4.71517 4.28105 4.58431 4.17114 4.43262 4.09832C4.28094 4.0255 4.11333 3.99213 3.94532 4.00131C3.77732 4.01048 3.61434 4.0619 3.47148 4.1508C3.32863 4.2397 3.21051 4.36321 3.12808 4.50989L3.03108 4.69589L2.98208 4.79489C2.26308 6.27989 1.79208 8.08489 1.96508 9.99789L1.99508 10.2709C2.27808 12.5339 3.49508 14.4859 5.77408 15.9499L5.94708 16.0569L5.86608 16.0999C4.55108 16.7629 3.34808 17.0519 2.03908 16.9999C0.98308 16.9599 0.59308 18.3719 1.52108 18.8779C5.11908 20.8389 8.98208 21.4439 12.3131 20.4779C16.3731 19.2979 19.4651 16.2549 20.6481 12.0449L20.7751 11.5499C21.0131 10.5569 21.1471 9.54389 21.1761 8.52589L21.1791 8.19389L21.5721 7.41489L22.0121 6.55289L22.2261 6.11889L22.3441 5.87189C22.6091 5.30689 22.8001 4.83889 22.9181 4.44189L22.9321 4.38589L22.9401 4.36789C23.1601 3.77489 22.7741 3.00989 21.9991 3.00989L21.8771 3.01689C21.7981 3.02663 21.7205 3.04576 21.6461 3.07389L21.5601 3.11189C21.2741 3.24923 20.9803 3.36944 20.6801 3.47189L20.3241 3.58689L20.0531 3.66689L19.2811 3.88089C17.9451 2.76289 16.1371 2.62689 14.2691 3.32689L14.0581 3.40989Z" fill="white"/>
</g>
<defs>
<clipPath id="clip0_2352_9202">
<rect width="24" height="24" fill="white"/>
</clipPath>
</defs>
</svg>
